<svg width="38" height="32" viewBox="0 0 38 32" fill="none" xmlns="http://www.w3.org/2000/svg">
<path id="fa-quote-left" d="M17.1429 18.5714C17.1429 16.2054 15.2232 14.2857 12.8571 14.2857H7.85714C6.67411 14.2857 5.71429 13.3259 5.71429 12.1429V11.4286C5.71429 8.28125 8.28125 5.71429 11.4286 5.71429H12.8571C13.6384 5.71429 14.2857 5.06696 14.2857 4.28571V1.42857C14.2857 0.647321 13.6384 0 12.8571 0H11.4286C5.13393 0 0 5.13393 0 11.4286V27.1429C0 29.5089 1.91964 31.4286 4.28571 31.4286H12.8571C15.2232 31.4286 17.1429 29.5089 17.1429 27.1429V18.5714ZM37.1429 18.5714C37.1429 16.2054 35.2232 14.2857 32.8571 14.2857H27.8571C26.6741 14.2857 25.7143 13.3259 25.7143 12.1429V11.4286C25.7143 8.28125 28.2813 5.71429 31.4286 5.71429H32.8571C33.6384 5.71429 34.2857 5.06696 34.2857 4.28571V1.42857C34.2857 0.647321 33.6384 0 32.8571 0H31.4286C25.1339 0 20 5.13393 20 11.4286V27.1429C20 29.5089 21.9196 31.4286 24.2857 31.4286H32.8571C35.2232 31.4286 37.1429 29.5089 37.1429 27.1429V18.5714Z" fill="#03018D"/>
</svg>
