<svg width="97" height="72" viewBox="0 0 97 72" fill="none" xmlns="http://www.w3.org/2000/svg">
<path fill-rule="evenodd" clip-rule="evenodd" d="M37.7111 48.6879L37.7865 48.7854C38.2621 49.4002 38.8915 49.8787 39.6111 50.1726L42.977 51.5474C43.4166 51.7269 43.887 51.8193 44.3619 51.8193H46.9771C47.5557 51.8193 48.0248 51.3502 48.0248 50.7716V50.6858C48.0248 50.1546 48.4554 49.7239 48.9867 49.7239C49.5179 49.7239 49.9486 49.2933 49.9486 48.762V48.3383C49.9486 47.7258 50.3506 47.186 50.9374 47.0106L52.1767 46.6402V30.6154C52.1767 28.5009 50.4626 26.7869 48.3482 26.7869H35.5048V38.2885C35.5048 42.68 31.9448 46.24 27.5533 46.24H13.5117C13.9257 46.4619 14.3644 46.6385 14.8203 46.7654L18.7309 47.8542C19.72 48.1295 20.7608 48.1632 21.7657 47.9523L33.1275 45.5677C34.8454 45.2071 36.5713 46.1459 37.202 47.7841C37.3269 48.1085 37.4984 48.413 37.7111 48.6879ZM9.41758 42.9131C9.79479 42.4287 10.3836 42.117 11.0451 42.117H27.5533C29.6677 42.117 31.3818 40.403 31.3818 38.2885V26.7869H20.0763C15.6848 26.7869 12.1248 23.2269 12.1248 18.8354V8.92693C11.3916 9.67631 10.3053 9.99477 9.26525 9.73335C9.02743 9.67358 8.78315 9.64335 8.53793 9.64335H8.25445C7.59113 9.64335 6.93376 9.76846 6.31683 10.0121L5.75424 10.2343L3.79887 11.0974C3.64348 11.166 3.4755 11.2014 3.30564 11.2014C2.60406 11.2014 2.04668 11.7911 2.08612 12.4916L2.46525 19.2257C2.4835 19.5498 2.66149 19.8438 2.94029 20.0102C3.54066 20.3686 3.58173 21.223 3.01852 21.6374L2.66035 21.9009C2.26514 22.1916 2.07218 22.6836 2.16435 23.1655L2.83966 26.696C2.99558 27.5111 2.83681 28.3551 2.39534 29.0579L1.51894 30.453C1.30298 30.7968 1.32762 31.2394 1.58041 31.5571C1.83859 31.8816 1.85826 32.3355 1.6291 32.681L0.996237 33.6355C0.249466 34.7617 0.519156 36.2759 1.60884 37.075L3.89628 38.7524C4.09653 38.8993 4.33839 38.9785 4.58671 38.9785C5.23152 38.9785 5.75424 39.5012 5.75424 40.146V40.5947C5.75424 41.3221 6.24007 41.9598 6.9413 42.153L8.69288 42.6355C8.94378 42.7046 9.18641 42.7977 9.41758 42.9131ZM13.5002 5.32345C13.7149 5.24773 13.9458 5.20653 14.1863 5.20653C15.3249 5.20653 16.2478 6.12949 16.2478 7.26802V18.8354C16.2478 20.9498 17.9619 22.6639 20.0763 22.6639H31.3818V10.0167C31.3818 6.22897 34.0302 3.05984 37.5762 2.25999C37.4065 1.91543 37.0539 1.6917 36.6624 1.6917C36.6134 1.6917 36.5644 1.68816 36.5159 1.68111L32.989 1.16845C32.4343 1.08782 31.8713 1.08033 31.3146 1.14617L26.7025 1.6917H24.2818C23.4801 1.6917 22.6856 1.54127 21.9394 1.24823L19.6485 0.348519C18.482 -0.172702 17.117 0.0535471 16.1811 0.923229L15.2603 1.77878C14.5657 2.42422 14.0655 3.25101 13.816 4.16578L13.5002 5.32345ZM48.016 6.18818H39.3333C37.2188 6.18818 35.5048 7.90225 35.5048 10.0167V22.6639H48.3482C52.7397 22.6639 56.2996 26.2239 56.2996 30.6154V45.4079L56.9512 45.2131C57.5522 45.0335 58.1236 44.7666 58.6471 44.4209L65.3116 40.02C66.3412 39.3401 67.1526 38.3775 67.6484 37.2477L67.9646 36.527C68.7984 34.6269 68.6605 32.4408 67.5946 30.6606L66.7047 29.1741C66.2275 28.3771 65.5828 27.6935 64.8153 27.1704L61.1709 24.687L59.7129 23.9305C58.5073 23.3049 57.5305 22.3099 56.9257 21.0938C56.4848 20.2072 56.2544 19.2288 56.2544 18.2387V17.6888C56.2544 16.8813 56.407 16.0812 56.7042 15.3304L57.5736 13.134C58.0586 11.9087 57.9778 10.5318 57.3527 9.37162C56.6641 8.09337 55.397 7.22963 53.9555 7.05572L50.9105 6.68834L48.016 6.18818Z" fill="#FCB23A"/>
<path d="M28.2021 53.3805C28.2021 51.466 28.9385 51.0732 29.233 50.8769L27.9076 49.1096H25.8457H23.1948L24.5203 50.8769C25.1585 50.8769 25.8457 50.7296 25.8457 51.1714V53.3805V65.6041L25.1094 65.015L24.5203 66.046L28.2021 69.7278C28.3985 69.6296 28.8796 69.3154 29.233 68.8441C28.5261 68.6085 28.2512 67.5678 28.2021 67.0769C28.153 63.1496 28.2021 54.9167 28.2021 53.3805Z" fill="#5D380D"/>
<path d="M48.5257 53.5278C48.6435 51.9961 49.2621 51.2205 49.5566 51.0241L48.2312 49.2569H45.8748H43.2239L44.5493 51.6132C45.1875 51.6132 45.8748 51.466 45.8748 51.9078V53.5278V65.7514L45.1384 65.1623L44.5493 66.1932L48.5257 69.8751C48.7221 69.7769 49.2031 69.4627 49.5566 68.9914C48.8497 68.7558 48.5748 67.7151 48.5257 67.2241C48.4766 63.2969 48.4079 55.0594 48.5257 53.5278Z" fill="#5D380D"/>
<path d="M95.9476 53.5278C96.0654 51.9961 96.6839 51.2205 96.9785 51.0241L95.653 49.2569H93.2967H90.6458L91.9712 51.6132C92.6094 51.6132 93.2967 51.466 93.2967 51.9078V53.5278V65.7514L92.5603 65.1623L91.9712 66.1932L95.9476 69.8751C96.1439 69.7769 96.625 69.4627 96.9785 68.9914C96.2716 68.7558 95.9967 67.7151 95.9476 67.2241C95.8985 63.2969 95.8297 55.0594 95.9476 53.5278Z" fill="#5D380D"/>
<path d="M41.8984 51.6132C41.4566 51.5151 40.573 51.6132 40.573 52.7914V58.2405C39.3948 60.7441 38.218 60.3312 36.8912 59.566C36.1356 59.1302 35.7585 58.9179 35.6071 58.807C36.2324 60.6513 37.9237 63.9426 39.6894 64.5732C41.7512 65.3096 42.1439 64.7205 42.193 64.5732L43.3712 67.2241L42.193 68.6969C39.9348 68.0587 35.389 64.9856 33.5039 59.566C31.6188 54.1463 34.0439 55.786 35.713 56.7678C38.3639 58.3271 37.9221 56.2965 37.9221 55.5896V51.6132H32.3257V52.7914L31.7366 53.3805L29.6748 50.5823C29.6748 49.9441 29.9104 49.2569 30.853 49.2569H39.3948L41.8984 51.6132Z" fill="#5D380D"/>
<path d="M76.3602 51.6132C75.9184 51.5151 75.0348 51.6132 75.0348 52.7914V58.2405C73.8566 60.7441 72.6797 60.3312 71.353 59.566C70.5974 59.1302 70.2203 58.9179 70.0689 58.807C70.6942 60.6513 72.3855 63.9426 74.1511 64.5732C76.213 65.3096 76.6057 64.7205 76.6548 64.5732L77.833 67.2241L76.6548 68.6969C74.3966 68.0587 69.8508 64.9856 67.9657 59.566C66.0806 54.1463 68.5057 55.786 70.1748 56.7678C72.8257 58.3271 72.3839 56.2965 72.3839 55.5896V51.6132H66.7875V52.7914L66.1984 53.3805L64.1366 50.5823C64.1366 49.9441 64.3722 49.2569 65.3148 49.2569H73.8566L76.3602 51.6132Z" fill="#5D380D"/>
<rect x="37.9221" y="56.0314" width="8.83637" height="2.35636" fill="#5D380D"/>
<rect x="73.2676" y="56.0314" width="6.18546" height="2.35636" fill="#5D380D"/>
<path d="M73.2676 49.2569H78.2749L79.453 51.6132H73.2676V49.2569Z" fill="#5D380D"/>
<path d="M25.1105 37.9168C18.1919 36.1869 21.2814 45.9102 25.1105 49.6902H28.2033C25.2024 46.9411 22.4061 40.4204 25.4039 40.4204C32.915 40.4204 41.9047 46.6956 46.4639 49.6902H47.9364C43.3712 46.4586 35.1239 40.4205 25.1105 37.9168Z" fill="#5D380D"/>
<path d="M58.2749 52.7914V51.6132H61.2203V54.1169C61.2203 55.0594 59.8458 56.0805 59.1585 56.0314H55.7712C53.7683 56.0314 53.1694 57.7005 53.1203 58.535C52.5803 57.995 51.6771 57.1212 51.2058 56.7678C50.764 54.5587 52.8258 53.5278 55.4767 53.5278C57.5974 53.5278 58.2258 53.0369 58.2749 52.7914Z" fill="#5D380D"/>
<path d="M54.4458 63.2478L57.8331 66.046C57.9803 65.8987 58.1865 65.4863 57.8331 65.015C57.4796 64.5438 57.6858 64.3278 57.8331 64.2787H63.1349C64.9021 64.2787 64.9512 62.5114 64.7549 61.6278L59.1585 57.2096V57.9459C56.8512 57.6514 51.9716 57.7987 50.9113 60.7441C49.8509 63.6896 51.6476 66.7823 52.6785 67.9605C53.8076 68.9914 57.0378 70.8765 60.9258 71.3478C64.8138 71.819 67.1603 68.795 67.8476 67.2241L64.0185 64.7205V65.6041C64.1167 65.4569 64.4014 65.2801 64.7549 65.7514C63.9302 67.5187 61.6622 68.3532 60.6312 68.5496C58.9131 68.8932 55.1233 69.1092 53.7094 66.046C52.2956 62.9827 54.2985 61.235 55.4767 60.7441H60.9258C61.7505 60.7441 61.2694 61.5296 60.9258 61.9223H56.0658C54.652 61.9223 54.3967 62.806 54.4458 63.2478Z" fill="#5D380D"/>
<path d="M46.7584 49.2569H62.2221L63.5475 51.6132H46.7584V49.2569Z" fill="#5D380D"/>
<path fill-rule="evenodd" clip-rule="evenodd" d="M84.5431 56.7415L80.6274 51.7088C79.7118 50.7933 78.5217 48.9623 81.0851 48.9623H87.4936C88.8669 49.4201 91.3388 50.8849 90.2402 53.0821C88.8669 55.8286 86.2434 60.0078 85.7857 60.0078C85.328 60.0078 83.7557 59.4505 82.8402 58.535C82.4434 58.1382 82.7106 58.0924 83.1407 58.0188C83.7028 57.9226 84.5431 57.7788 84.5431 56.7415ZM85.8664 55.4704C84.9509 54.5549 82.9198 51.6135 84.0184 51.6135C84.1968 51.6135 84.4178 51.6039 84.6627 51.5933C86.3028 51.5221 89.0155 51.4044 87.1965 53.8088C86.8632 54.2494 86.6354 54.5941 86.4647 54.8524C86.1829 55.279 86.0564 55.4704 85.8664 55.4704Z" fill="#5D380D"/>
<path d="M93.5912 63.7098V59.5901L89.3539 62.019C87.5465 63.055 85.2839 63.0003 83.7435 61.5978C83.0727 60.9871 82.3946 60.3 81.8266 59.5901C80.3617 57.759 81.5214 57.9116 82.2843 58.2167L84.5731 59.5901L85.4886 58.6745C84.7257 58.0642 82.9252 56.6604 81.8266 55.9279C78.1645 53.3645 77.5542 56.3857 77.7068 58.2167C79.6904 60.2003 84.2069 64.4421 86.4041 65.5407C88.6013 66.6393 92.5232 64.3202 93.5912 63.7098Z" fill="#5D380D"/>
<path fill-rule="evenodd" clip-rule="evenodd" d="M42.6348 43.2186L39.9839 39.6841H40.8675L41.1877 40.1259H46.8621L45.433 41.7459L43.7816 43.7055L48.2312 49.8459H47.3475L43.3474 44.2207L43.323 44.2495L42.6465 43.2351L42.6348 43.2186Z" fill="#5D380D"/>
<path d="M92.5002 34.9588H96.6239V35.9253L95.6832 38.8247C95.2708 40.1134 95.0646 41.3075 95.0646 42.4071V43.6958H93.8275V42.3298C93.8275 41.213 94.0423 39.9974 94.4719 38.683L95.2966 36.0671H92.5002V34.9588Z" fill="#5D380D"/>
<path d="M89.4451 34.8944C91.0602 34.8944 91.8677 35.5387 91.8677 36.8274V37.5748C91.8677 38.0301 91.7904 38.4124 91.6358 38.7217C91.4897 39.0223 91.2406 39.2972 90.8884 39.5464L89.8446 40.3325C89.4494 40.616 89.1874 40.8522 89.0585 41.0412C88.9296 41.2302 88.8652 41.5008 88.8652 41.853V42.6005H91.8548V43.6958H87.641V41.7628C87.641 41.2388 87.7484 40.8178 87.9631 40.5C88.1779 40.1821 88.5001 39.8728 88.9296 39.5722L90.025 38.7217C90.2741 38.5584 90.4416 38.3823 90.5275 38.1933C90.6134 38.0043 90.6564 37.7466 90.6564 37.4201V36.9305C90.6564 36.6212 90.5705 36.3935 90.3987 36.2475C90.2269 36.0928 89.8703 36.0155 89.3291 36.0155C88.7965 36.0155 88.281 36.1143 87.7827 36.3119V35.1392C88.2552 34.976 88.8094 34.8944 89.4451 34.8944Z" fill="#5D380D"/>
<path d="M85.2297 36.982C85.2297 36.2775 84.8818 35.9253 84.186 35.9253C83.808 35.9253 83.5416 36.0155 83.387 36.1959C83.2324 36.3763 83.155 36.6383 83.155 36.982V41.6726C83.155 42.0162 83.2324 42.2783 83.387 42.4587C83.5416 42.6391 83.808 42.7293 84.186 42.7293C84.8818 42.7293 85.2297 42.3771 85.2297 41.6726V36.982ZM81.9437 36.9562C81.9437 36.3119 82.1284 35.7964 82.4978 35.4098C82.8672 35.0233 83.43 34.83 84.186 34.83C84.9505 34.83 85.5175 35.0233 85.887 35.4098C86.2564 35.7964 86.4411 36.3119 86.4411 36.9562V41.7113C86.4411 42.3556 86.2564 42.871 85.887 43.2576C85.5175 43.6356 84.9505 43.8246 84.186 43.8246C83.43 43.8246 82.8672 43.6356 82.4978 43.2576C82.1284 42.871 81.9437 42.3556 81.9437 41.7113V36.9562Z" fill="#5D380D"/>
<path d="M78.2829 34.8944C79.8979 34.8944 80.7055 35.5387 80.7055 36.8274V37.5748C80.7055 38.0301 80.6282 38.4124 80.4735 38.7217C80.3275 39.0223 80.0783 39.2972 79.7261 39.5464L78.6823 40.3325C78.2871 40.616 78.0251 40.8522 77.8963 41.0412C77.7674 41.2302 77.703 41.5008 77.703 41.853V42.6005H80.6926V43.6958H76.4788V41.7628C76.4788 41.2388 76.5861 40.8178 76.8009 40.5C77.0157 40.1821 77.3379 39.8728 77.7674 39.5722L78.8627 38.7217C79.1119 38.5584 79.2794 38.3823 79.3653 38.1933C79.4512 38.0043 79.4942 37.7466 79.4942 37.4201V36.9305C79.4942 36.6212 79.4083 36.3935 79.2364 36.2475C79.0646 36.0928 78.7081 36.0155 78.1669 36.0155C77.6342 36.0155 77.1188 36.1143 76.6205 36.3119V35.1392C77.093 34.976 77.6471 34.8944 78.2829 34.8944Z" fill="#5D380D"/>
<path d="M68.9924 38.4509V36.9818C68.9924 36.7155 68.9408 36.5222 68.8378 36.4019C68.7347 36.2731 68.5285 36.2086 68.2192 36.2086C67.9185 36.2086 67.7123 36.2731 67.6007 36.4019C67.4976 36.5308 67.446 36.7241 67.446 36.9818L67.4976 37.5617H66.3765C66.3421 37.3298 66.3249 37.1236 66.3249 36.9432C66.3249 35.7662 66.9563 35.1777 68.2192 35.1777C69.4821 35.1777 70.1135 35.7662 70.1135 36.9432V38.4509H71.5825V35.2422H73.8892V36.1958H72.7037V43.6956H71.5825V39.4045H70.0748V41.2601C70.0748 42.3769 69.4434 42.9353 68.1805 42.9353C66.9177 42.9353 66.2863 42.3769 66.2863 41.2601V40.1003C66.2863 39.0007 66.9177 38.4509 68.1805 38.4509H68.9924ZM68.9924 41.2343V39.4045H68.1805C67.8541 39.4045 67.635 39.4646 67.5233 39.5849C67.4203 39.6966 67.3687 39.8813 67.3687 40.139V41.2343C67.3687 41.4835 67.4203 41.6682 67.5233 41.7884C67.635 41.9001 67.8541 41.956 68.1805 41.956C68.507 41.956 68.7218 41.9001 68.8249 41.7884C68.9365 41.6682 68.9924 41.4835 68.9924 41.2343Z" fill="#5D380D"/>
<path d="M62.5312 33.6701C62.5312 34.1082 62.3121 34.3273 61.874 34.3273C61.4359 34.3273 61.2168 34.1082 61.2168 33.6701C61.2168 33.2233 61.4359 33 61.874 33C62.3121 33 62.5312 33.2233 62.5312 33.6701Z" fill="#5D380D"/>
<path d="M61.0493 45.7704H61.874C62.1747 45.7704 62.3723 45.7188 62.4668 45.6157C62.5613 45.5212 62.6086 45.358 62.6086 45.1261C62.6086 44.8941 62.557 44.7266 62.4539 44.6235C62.3508 44.529 62.179 44.4817 61.9385 44.4817C61.4488 44.4817 61.0235 44.529 60.6627 44.6235V43.7086C61.0063 43.6141 61.4531 43.5668 62.0029 43.5668C62.5441 43.5668 62.9522 43.6871 63.2271 43.9276C63.4934 44.1682 63.6266 44.5633 63.6266 45.1132C63.6266 45.663 63.502 46.0582 63.2529 46.2987C63.0123 46.5478 62.6086 46.6724 62.0416 46.6724H60.9462C60.594 46.6724 60.2804 46.6123 60.0055 46.492C59.7306 46.3803 59.4514 46.157 59.1679 45.8219L57.905 44.4173H59.2452L59.9668 45.2163C60.173 45.4482 60.3534 45.5986 60.5081 45.6673C60.6541 45.736 60.8345 45.7704 61.0493 45.7704Z" fill="#5D380D"/>
<path d="M60.8138 38.1931L60.5432 38.1802C60.2081 38.1802 59.9719 38.249 59.8344 38.3864C59.7055 38.5153 59.6411 38.7043 59.6411 38.9534V41.1441C59.6411 41.6682 59.9418 41.9302 60.5432 41.9302C60.8438 41.9302 61.1102 41.8872 61.3421 41.8013V36.1957H57.6566V35.2422H66.0843V36.1957H62.4375V37.2911C62.6436 37.2224 62.9314 37.188 63.3008 37.188C64.5551 37.188 65.1823 37.7679 65.1823 38.9277V41.0797C65.1823 42.2309 64.6153 42.8065 63.4813 42.8065C63.3696 42.8065 63.2708 42.7979 63.1849 42.7807V41.7369C63.2192 41.7455 63.3309 41.7498 63.5199 41.7498C63.9065 41.7498 64.0998 41.5006 64.0998 41.0024V38.9534C64.0998 38.4294 63.7991 38.1674 63.1978 38.1674C62.9486 38.1674 62.6952 38.2017 62.4375 38.2705V43.6956H61.3421V42.7678C60.8782 42.8451 60.5775 42.8838 60.4401 42.8838C59.1858 42.8838 58.5587 42.3168 58.5587 41.1828V38.9277C58.5587 37.7765 59.1858 37.2009 60.4401 37.2009C60.6205 37.2009 60.745 37.2138 60.8138 37.2395V38.1931Z" fill="#5D380D"/>
</svg>
