<svg width="65" height="40" viewBox="0 0 65 40" fill="none" xmlns="http://www.w3.org/2000/svg">
<rect opacity="0.3" width="65" height="40" rx="20" fill="#5B5963"/>
<path d="M54.354 18.3538L49.354 23.3538C49.3076 23.4002 49.2524 23.4371 49.1917 23.4623C49.131 23.4874 49.066 23.5004 49.0003 23.5004C48.9346 23.5004 48.8695 23.4874 48.8088 23.4623C48.7481 23.4371 48.693 23.4002 48.6465 23.3538L43.6465 18.3538C43.5527 18.2599 43.5 18.1327 43.5 18C43.5 17.8673 43.5527 17.7401 43.6465 17.6463C43.7403 17.5524 43.8676 17.4997 44.0003 17.4997C44.133 17.4997 44.2602 17.5524 44.354 17.6463L49.0003 22.2931L53.6465 17.6463C53.693 17.5998 53.7481 17.5629 53.8088 17.5378C53.8695 17.5127 53.9346 17.4997 54.0003 17.4997C54.066 17.4997 54.131 17.5127 54.1917 17.5378C54.2524 17.5629 54.3076 17.5998 54.354 17.6463C54.4005 17.6927 54.4373 17.7479 54.4625 17.8086C54.4876 17.8693 54.5006 17.9343 54.5006 18C54.5006 18.0657 54.4876 18.1308 54.4625 18.1915C54.4373 18.2521 54.4005 18.3073 54.354 18.3538Z" fill="#03018D"/>
<rect x="3" y="3" width="35" height="34" rx="17" fill="#03018D"/>
<path d="M28.8472 22.8556L24.4306 20.8766L24.4184 20.8709C24.1892 20.7729 23.939 20.7335 23.6907 20.7564C23.4424 20.7794 23.2037 20.8638 22.9963 21.0022C22.9718 21.0183 22.9484 21.0359 22.9259 21.0547L20.6441 23C19.1984 22.2978 17.7059 20.8166 17.0038 19.3897L18.9519 17.0731C18.9706 17.0497 18.9884 17.0263 19.0053 17.0009C19.1407 16.794 19.2229 16.5569 19.2445 16.3105C19.2661 16.0642 19.2264 15.8164 19.1291 15.5891V15.5778L17.1444 11.1538C17.0157 10.8568 16.7944 10.6095 16.5136 10.4486C16.2328 10.2877 15.9075 10.222 15.5863 10.2613C14.3159 10.4284 13.1499 11.0523 12.3059 12.0163C11.4619 12.9804 10.9977 14.2187 11 15.5C11 22.9438 17.0563 29 24.5 29C25.7813 29.0023 27.0196 28.5381 27.9837 27.6941C28.9477 26.8501 29.5716 25.6841 29.7388 24.4138C29.7781 24.0926 29.7125 23.7674 29.5518 23.4866C29.3911 23.2058 29.144 22.9845 28.8472 22.8556ZM24.5 27.5C21.3185 27.4965 18.2682 26.2311 16.0186 23.9814C13.7689 21.7318 12.5035 18.6815 12.5 15.5C12.4965 14.5845 12.8263 13.6991 13.4279 13.009C14.0295 12.3189 14.8617 11.8714 15.7691 11.75C15.7687 11.7537 15.7687 11.7575 15.7691 11.7613L17.7378 16.1675L15.8 18.4869C15.7803 18.5095 15.7625 18.5336 15.7466 18.5591C15.6055 18.7755 15.5227 19.0248 15.5063 19.2827C15.4899 19.5406 15.5403 19.7983 15.6528 20.0309C16.5022 21.7681 18.2525 23.5053 20.0084 24.3538C20.2428 24.4652 20.502 24.5139 20.7608 24.4952C21.0196 24.4764 21.2692 24.3909 21.485 24.2469C21.5091 24.2307 21.5322 24.2131 21.5544 24.1944L23.8334 22.25L28.2397 24.2234C28.2397 24.2234 28.2472 24.2234 28.25 24.2234C28.1301 25.1321 27.6833 25.966 26.9931 26.5691C26.3028 27.1721 25.4166 27.5031 24.5 27.5Z" fill="white"/>
</svg>
